<svg xmlns="http://www.w3.org/2000/svg" width="24" height="24" viewBox="0 0 24 24"><defs><style>.a{fill:#2c2a2a;}</style></defs><path class="a" d="M14.815,10.273a1.73,1.73,0,0,1,1.92,0l6.708,4.944a.818.818,0,0,1,.042,1.374l-6.609,4.872a1.724,1.724,0,0,1-1.92.005.824.824,0,0,1,0-1.41l5.618-4.19-5.759-4.19A.816.816,0,0,1,14.815,10.273Z" transform="translate(-6.298 -3.875)"/><path class="a" d="M3.375,15.375a12,12,0,1,0,12-12A12,12,0,0,0,3.375,15.375Zm1.846,0A10.15,10.15,0,0,1,22.552,8.2,10.15,10.15,0,1,1,8.2,22.552,10.067,10.067,0,0,1,5.221,15.375Z" transform="translate(-3.375 -3.375)"/></svg>